<svg xmlns="http://www.w3.org/2000/svg" viewBox="0 0 112.82 81.97"><defs><style>.cls-1{isolation:isolate;}.cls-2{fill:#ffe100;mix-blend-mode:multiply;}.cls-3{fill:#f6a100;}.cls-4{fill:#ed690e;}.cls-5{fill:#e44200;}.cls-6{fill:#f68e00;}</style></defs><g class="cls-1"><g id="Capa_1" data-name="Capa 1"><path class="cls-2" d="M99.59,185.17H72.89A14.86,14.86,0,0,1,58,170.31v-12.6a14.86,14.86,0,0,1,14.86-14.85h26.7a14.85,14.85,0,0,1,14.85,14.85v12.6A14.85,14.85,0,0,1,99.59,185.17Z" transform="translate(-58.03 -103.21)"/><path class="cls-3" d="M129.38,185.17H99.51A13.27,13.27,0,0,1,86.24,171.9V134.58a13.27,13.27,0,0,1,13.27-13.26h29.87a13.27,13.27,0,0,1,13.27,13.26V171.9A13.27,13.27,0,0,1,129.38,185.17Z" transform="translate(-58.03 -103.21)"/><path class="cls-4" d="M157.59,185.17H127.71a13.27,13.27,0,0,1-13.27-13.27V116.47a13.27,13.27,0,0,1,13.27-13.26h29.88a13.26,13.26,0,0,1,13.26,13.26V171.9A13.27,13.27,0,0,1,157.59,185.17Z" transform="translate(-58.03 -103.21)"/><path class="cls-5" d="M142.65,171.9V134.58a13.27,13.27,0,0,0-13.27-13.26H114.44V171.9a13.27,13.27,0,0,0,13.27,13.27h1.67A13.27,13.27,0,0,0,142.65,171.9Z" transform="translate(-58.03 -103.21)"/><path class="cls-6" d="M114.44,170.31v-12.6a14.85,14.85,0,0,0-14.85-14.85H86.24v29a13.27,13.27,0,0,0,13.27,13.27h.08A14.85,14.85,0,0,0,114.44,170.31Z" transform="translate(-58.03 -103.21)"/></g></g></svg>