<svg width="1966" height="1806" xmlns="http://www.w3.org/2000/svg" xmlns:xlink="http://www.w3.org/1999/xlink" xml:space="preserve" overflow="hidden"><g transform="translate(-962 -334)"><g><path d="M1256.97 339 1281.92 339 1317.94 347.319 1342.88 363.958 1359.51 383.37 1373.36 416.648 1376.14 447.153 1370.59 474.884 1356.74 502.616 1340.11 522.028 1359.51 549.759 1376.14 583.037 1387.22 632.954 1389.99 657.912 1417.7 635.727 1467.58 607.996 1475.9 599.676 1481.44 599.676 1486.98 588.584 1498.07 569.171 1500.84 555.306 1486.98 541.44 1478.67 527.574 1475.9 505.389 1484.21 480.431 1495.3 466.565 1517.47 455.472 1545.18 455.472 1567.35 466.565 1583.97 488.75 1586.75 497.069 1586.75 519.254 1578.43 541.44 1561.8 558.079 1542.41 563.625 1531.32 563.625 1525.78 594.129 1575.66 580.264 1600.6 566.398 1622.77 544.213 1636.63 516.481 1653.25 469.338 1650.48 458.245 1642.17 438.833 1642.17 419.421 1650.48 402.782 1664.34 388.917 1686.51 380.597 1714.22 386.144 1728.08 397.236 1736.39 411.102 1739.16 438.833 1728.08 461.019 1711.45 474.884 1705.91 477.657 1680.97 477.657 1669.88 522.028 1667.11 558.079 1703.14 560.852 1761.33 560.852 1797.36 546.986 1813.98 541.44 1811.21 524.801 1816.75 505.389 1830.61 488.75 1850.01 480.431 1869.41 480.431 1891.58 491.523 1905.43 513.708 1905.43 538.667 1894.35 560.852 1880.49 571.944 1874.95 574.718 1844.47 574.718 1833.38 569.171 1816.75 571.944 1777.96 591.356 1750.25 599.676 1711.45 599.676 1675.42 594.129 1639.4 594.129 1611.69 610.769 1581.2 621.861 1511.92 632.954 1470.36 649.593 1439.87 669.005 1406.62 699.51 1384.45 727.241 1365.05 766.065 1356.74 791.023 1348.42 843.713 1348.42 901.949 1356.74 940.773 1370.59 974.051 1392.76 1004.56 1445.42 1057.25 1470.36 1087.75 1486.98 1112.71 1492.53 1129.35 1514.69 1087.75 1523.01 1051.7 1534.09 1035.06 1547.95 1023.97 1567.35 1023.97 1570.12 1029.51 1570.12 1048.93 1559.03 1071.11 1542.41 1096.07 1534.09 1129.35 1520.24 1154.31 1506.38 1173.72 1500.84 1198.68 1495.3 1270.78 1495.3 1301.28 1517.47 1340.11 1528.55 1367.84 1550.72 1459.35 1553.49 1464.9 1570.12 1384.48 1608.92 1218.09 1628.31 1123.8 1639.4 1054.47 1647.71 979.597 1570.12 987.917 1500.84 987.917 1470.36 976.824 1448.19 960.185 1426.02 935.227 1409.39 904.722 1398.3 868.672 1398.3 813.208 1401.02 803.034 1401.02 818.416 1406.56 818.416 1409.33 807.324 1417.64 790.685 1431.5 776.819 1448.13 774.046 1467.52 782.365 1484.15 807.324 1492.47 835.055 1492.47 865.56 1489.69 876.653 1478.61 898.838 1484.15 901.611 1509.09 879.426 1520.18 854.467 1520.18 812.87 1517.41 804.551 1506.32 782.365 1492.47 765.727 1470.3 751.861 1442.58 746.315 1428.73 749.088 1414.58 761.223 1428.79 732.787 1453.73 705.056 1481.44 688.417 1509.15 677.324 1536.86 674.551 2063.39 685.644 2179.78 688.417 2193.64 691.19 2177.01 671.778 2146.53 646.82 2118.81 619.088 2096.64 583.037 2091.1 571.944 2041.22 569.171 2010.74 558.079 1985.8 538.667 1966.4 508.162 1960.86 488.75 1960.86 441.606 1971.94 408.329 1991.34 380.597 2013.51 363.958 2038.45 355.639 2052.31 352.866 2082.79 352.866 2118.81 363.958 2143.75 383.37 2163.15 411.102 2171.47 430.514 2174.24 444.379 2174.24 491.523 2163.15 519.254 2138.21 546.986 2124.36 558.079 2149.3 594.129 2171.47 613.541 2218.58 646.82 2226.89 655.139 2246.29 602.449 2254.6 588.584 2249.06 571.944 2249.06 541.44 2257.37 524.801 2274 513.708 2282.31 510.935 2301.71 510.935 2318.34 519.254 2329.42 533.12 2332.19 541.44 2332.19 569.171 2321.11 588.584 2301.71 599.676 2282.31 602.449 2271.23 632.954 2271.23 671.778 2276.77 693.963 2346.05 693.963 2382.08 705.056 2415.33 727.241 2431.96 741.107 2451.36 763.292 2456.9 724.468 2473.53 685.644 2487.38 663.458 2490.15 652.366 2490.15 630.181 2465.21 613.541 2448.58 591.356 2440.27 569.171 2437.5 544.213 2443.04 516.481 2454.13 494.296 2470.75 474.884 2495.7 461.019 2512.32 455.472 2551.12 455.472 2578.83 466.565 2601 485.977 2617.63 519.254 2620.4 535.893 2620.4 558.079 2612.08 585.811 2595.46 610.769 2573.29 627.408 2551.12 635.727 2520.64 635.727 2517.86 680.098 2501.24 721.695 2495.7 752.199 2495.7 849.259 2509.55 910.269 2515.09 951.866 2515.09 1071.11 2553.89 1043.38 2589.92 1012.88 2612.08 985.144 2631.48 946.319 2645.34 901.949 2648.11 888.084 2648.11 868.672 2628.71 846.486 2614.86 827.074 2603.77 782.704 2589.92 774.385 2578.83 760.519 2576.06 738.333 2587.14 718.921 2609.31 707.829 2631.48 710.602 2645.34 721.695 2653.65 738.333 2650.88 763.292 2639.8 777.158 2634.25 779.931 2637.03 796.57 2650.88 821.528 2670.28 832.62 2684.14 829.847 2711.85 804.889 2706.31 777.158 2706.31 754.972 2714.62 721.695 2734.02 691.19 2764.5 669.005 2789.44 660.685 2822.7 660.685 2844.86 666.232 2867.03 680.098 2886.43 702.283 2900.29 735.56 2900.29 779.931 2889.2 807.662 2869.81 829.847 2847.64 846.486 2811.61 857.579 2783.9 857.579 2758.96 849.259 2736.79 835.394 2725.7 838.167 2703.53 860.352 2686.91 893.63 2664.74 982.371 2728.47 982.371 2806.07 993.463 2811.61 976.824 2831.01 954.639 2855.95 943.546 2880.89 943.546 2903.06 954.639 2919.69 974.051 2928 999.009 2928 1018.42 2916.92 1043.38 2903.06 1057.25 2880.89 1068.34 2844.86 1068.34 2822.7 1054.47 2808.84 1037.83 2806.07 1021.19 2761.73 1021.19 2720.16 1018.42 2675.82 1018.42 2642.57 1029.51 2614.86 1062.79 2595.46 1084.98 2562.2 1115.48 2528.95 1140.44 2512.32 1159.85 2504.01 1182.04 2473.53 1312.37 2467.98 1317.92 2467.98 1309.6 2456.9 1304.06 2440.27 1292.96 2451.36 1237.5 2437.5 1231.95 2412.56 1223.63 2418.1 1218.09 2448.58 1212.54 2459.67 1212.54 2462.44 1187.58 2473.53 1112.71 2476.3 1084.98 2476.3 962.958 2470.75 910.269 2443.04 901.949 2434.73 896.403 2454.13 890.857 2465.21 890.857 2451.36 846.486 2429.19 802.116 2407.02 771.611 2384.85 754.972 2357.14 741.107 2332.19 735.56 1861.09 724.468 1633.86 718.921 1583.97 718.921 1608.92 743.88 1628.31 771.611 1650.48 813.208 1664.34 857.579 1678.19 946.319 1683.74 951.866 1708.68 957.412 1716.99 962.958 1694.82 974.051 1680.97 976.824 1678.19 1048.93 1667.11 1134.89 1653.25 1212.54 1675.42 1193.13 1675.42 1201.45 1658.8 1229.18 1644.94 1243.05 1628.31 1315.15 1603.37 1448.26 1592.29 1531.45 1592.29 1611.88 1595.06 1628.51 1620 1620.19 1625.54 1622.97 1600.6 1645.15 1597.83 1650.7 1600.6 1686.75 1617.23 1767.17 1633.86 1822.63 1656.03 1869.78 1675.42 1894.74 1700.36 1914.15 1725.31 1922.47 1758.56 1922.47 1777.96 1914.15 1797.36 1897.51 1805.67 1878.1 1805.67 1853.14 1780.73 1886.42 1764.1 1894.74 1741.93 1891.96 1725.31 1878.1 1714.22 1853.14 1714.22 1814.31 1722.53 1792.13 1744.7 1769.94 1780.73 1756.08 1841.69 1753.31 2046.76 1753.31 2116.04 1775.49 2138.21 1781.04 2138.21 1783.81 1852.78 1792.13 1838.92 1792.13 1844.47 1803.22 1850.01 1803.22 1866.64 1830.95 1874.95 1850.37 1877.72 1864.23 1877.72 1894.74 1866.64 1925.24 1847.24 1950.2 1847.24 1952.97 1874.95 1941.88 1905.43 1922.47 1913.75 1922.47 1899.89 1941.88 1927.6 1928.01 1944.23 1914.15 1949.77 1916.92 1935.92 1939.11 1966.4 1916.92 1971.94 1916.92 1966.4 1928.01 1960.86 1936.33 1974.71 1930.79 2002.42 1914.15 1996.88 1928.01 1988.57 1939.11 2032.91 1939.11 2157.61 1936.33 2071.7 1919.69 2066.16 1914.15 2110.5 1914.15 2243.52 1922.47 2282.31 1925.24 2334.97 1925.24 2370.99 1922.47 2401.47 1911.38 2407.02 1914.15 2401.47 1919.69 2420.87 1914.15 2454.13 1891.96 2462.44 1891.96 2451.36 1908.6 2484.61 1891.96 2501.24 1869.78 2512.32 1833.73 2515.09 1811.54 2515.09 1764.4 2548.35 1753.31 2578.83 1733.89 2595.46 1708.94 2601 1703.39 2609.31 1728.35 2639.8 1692.3 2664.74 1656.25 2695.22 1603.56 2711.85 1578.6 2722.93 1537 2734.02 1520.36 2758.96 1498.18 2778.36 1489.86 2811.61 1489.86 2819.92 1498.18 2819.92 1517.59 2808.84 1539.77 2786.67 1564.73 2758.96 1581.37 2742.33 1589.69 2711.85 1653.47 2750.64 1642.38 2764.5 1634.06 2775.59 1631.29 2803.3 1631.29 2825.47 1642.38 2831.01 1647.93 2831.01 1659.02 2808.84 1670.11 2786.67 1675.66 2742.33 1678.43 2695.22 1700.62 2678.59 1722.8 2656.42 1756.08 2631.48 1783.81 2603.77 1808.77 2592.69 1817.09 2587.14 1817.09 2584.37 1833.73 2562.2 1878.1 2542.8 1900.28 2526.18 1914.15 2520.64 1914.15 2520.64 1919.69 2548.35 1922.47 2595.46 1936.33 2623.17 1952.97 2656.42 1983.48 2681.36 2002.89 2695.22 2008.44 2756.19 2013.98 2792.21 2027.85 2828.24 2055.58 2842.09 2066.67 2886.43 2077.76 2908.6 2091.63 2908.6 2094.4 2853.18 2094.4 2817.15 2088.86 2800.53 2077.76 2783.9 2063.9 2764.5 2058.35 2703.53 2058.35 2728.47 2074.99 2758.96 2088.86 2753.42 2094.4 2742.33 2097.18 2706.31 2097.18 2661.97 2086.08 2634.25 2069.44 2603.77 2033.39 2578.83 2016.75 2551.12 2008.44 2495.7 2002.89 2484.61 2000.12 2501.24 2027.85 2526.18 2050.03 2548.35 2061.13 2584.37 2074.99 2609.31 2094.4 2625.94 2116.59 2601 2116.59 2570.52 2102.72 2498.47 2091.63 2473.53 2083.31 2451.36 2066.67 2420.87 2027.85 2401.47 2011.21 2373.76 2000.12 2362.68 2000.12 2373.76 2016.75 2387.62 2050.03 2401.47 2074.99 2401.47 2083.31 2379.31 2077.76 2357.14 2063.9 2337.74 2038.94 2326.65 2022.3 2301.71 2005.66 2271.23 2000.12 2226.89 2000.12 2246.29 2022.3 2274 2050.03 2285.08 2063.9 2307.25 2074.99 2337.74 2086.08 2354.36 2097.18 2373.76 2119.36 2373.76 2124.91 2354.36 2122.13 2318.34 2111.04 2262.92 2099.95 2218.58 2080.54 2201.95 2069.44 2201.95 2086.08 2221.35 2108.27 2237.97 2119.36 2226.89 2124.91 2204.72 2124.91 2177.01 2113.81 2157.61 2097.18 2149.3 2080.54 2138.21 2044.49 2121.58 2022.3 2093.87 2005.66 2066.16 1997.34 2043.99 2000.12 2019.05 2016.75 1996.88 2041.71 1991.34 2055.58 1991.34 2074.99 2005.2 2088.86 2043.99 2111.04 2057.85 2119.36 2046.76 2124.91 2002.42 2124.91 1966.4 2113.81 1941.46 2102.72 1910.97 2105.5 1908.2 2099.95 1916.52 2047.26 1930.37 2013.98 1866.64 2050.03 1841.69 2072.22 1822.3 2094.4 1802.9 2105.5 1797.36 2102.72 1802.9 2091.63 1775.19 2108.27 1733.62 2122.13 1722.53 2124.91 1672.65 2130.45 1639.4 2136 1644.94 2124.91 1675.42 2105.5 1705.91 2088.86 1722.53 2069.44 1739.16 2041.71 1755.79 2022.3 1714.22 2030.62 1680.97 2044.49 1656.03 2066.67 1639.4 2086.08 1614.46 2099.95 1606.14 2102.72 1570.12 2102.72 1575.66 2091.63 1595.06 2072.22 1617.23 2016.75 1636.63 1994.57 1644.94 1983.48 1614.46 1991.8 1581.2 2002.89 1564.58 2016.75 1536.86 2058.35 1514.69 2083.31 1492.53 2094.4 1417.7 2116.59 1389.99 2116.59 1398.3 2102.72 1417.7 2086.08 1448.19 2072.22 1475.9 2058.35 1489.75 2041.71 1503.61 2013.98 1470.36 2025.07 1426.02 2050.03 1398.3 2069.44 1367.82 2080.54 1326.25 2086.08 1295.77 2102.72 1284.69 2105.5 1265.29 2105.5 1254.2 2102.72 1256.97 2094.4 1281.92 2077.76 1293 2063.9 1240.35 2061.13 1209.86 2072.22 1179.38 2091.63 1162.75 2097.18 1099.02 2097.18 1104.56 2091.63 1137.81 2074.99 1157.21 2055.58 1184.92 2036.17 1218.18 2019.53 1240.35 2013.98 1298.54 2013.98 1340.11 2016.75 1359.51 2008.44 1367.82 2002.89 1334.57 1977.93 1315.17 1950.2 1298.54 1908.6 1284.69 1891.96 1254.2 1869.78 1223.72 1844.82 1201.55 1817.09 1190.47 1797.68 1190.47 1786.58 1218.18 1792.13 1245.89 1806 1281.92 1833.73 1309.63 1858.69 1315.17 1861.46 1301.31 1830.95 1290.23 1794.9 1293 1786.58 1317.94 1800.45 1334.57 1822.63 1353.97 1864.23 1362.28 1916.92 1373.36 1939.11 1389.99 1950.2 1412.16 1955.75 1439.87 1955.75 1503.61 1933.56 1523.01 1916.92 1539.64 1880.87 1523.01 1878.1 1498.07 1867 1473.13 1850.37 1456.5 1828.18 1442.64 1800.45 1417.7 1725.57 1398.3 1681.2 1376.14 1653.47 1348.42 1636.83 1326.25 1631.29 1259.75 1631.29 1229.26 1628.51 1215.41 1631.29 1182.15 1631.29 1154.44 1617.42 1148.9 1603.56 1162.75 1589.69 1184.92 1581.37 1212.64 1584.14 1240.35 1595.24 1301.31 1595.24 1276.37 1564.73 1251.43 1531.45 1243.12 1514.82 1218.18 1514.82 1193.24 1509.27 1168.3 1492.63 1151.67 1473.22 1143.36 1453.81 1140.58 1439.94 1140.58 1412.21 1151.67 1381.7 1171.07 1359.52 1193.24 1345.65 1215.41 1340.11 1251.43 1342.88 1273.6 1353.97 1287.46 1365.06 1304.08 1392.8 1309.63 1409.44 1309.63 1451.03 1295.77 1478.76 1284.69 1492.63 1270.83 1498.18 1290.23 1528.68 1309.63 1548.09 1348.42 1575.82 1356.74 1578.6 1356.74 1539.77 1365.05 1470.44 1373.36 1451.03 1384.45 1451.03 1392.76 1462.13 1398.3 1484.31 1398.3 1506.5 1392.76 1537 1392.76 1578.6 1403.85 1600.78 1431.56 1622.97 1453.73 1639.61 1473.13 1664.57 1486.98 1700.62 1498.07 1742.21 1511.92 1767.17 1514.69 1775.49 1559.03 1797.68 1581.2 1800.45 1556.26 1681.2 1547.95 1639.61 1545.18 1603.56 1517.47 1575.82 1498.07 1548.09 1475.9 1506.5 1459.27 1453.81 1445.42 1395.57 1431.56 1362.29 1414.93 1342.88 1387.22 1329.01 1351.19 1315.15 1329.03 1298.51 1301.31 1273.55 1273.6 1259.69 1245.89 1251.37 1220.95 1248.59 1165.53 1245.82 1132.27 1240.27 1112.87 1265.23 1090.7 1273.55 1065.76 1273.55 1043.59 1262.46 1026.97 1243.05 1021.42 1218.09 1026.97 1193.13 1046.36 1170.94 1065.76 1162.63 1087.93 1162.63 1110.1 1173.72 1126.73 1193.13 1132.27 1207 1143.36 1209.77 1209.86 1209.77 1251.43 1212.54 1270.83 1215.31 1234.81 1157.08 1212.64 1129.35 1184.92 1109.94 1137.81 1082.2 1115.64 1062.79 1096.25 1032.29 1087.93 1015.65 1082.39 1018.42 1038.05 1018.42 1013.11 1007.33 990.94 990.69 974.314 965.732 966 943.546 966 899.176 977.085 871.445 1002.03 843.713 1035.28 827.074 1071.3 824.301 1101.79 832.62 1123.96 849.259 1143.36 871.445 1154.44 899.176 1157.21 932.454 1151.67 957.412 1135.04 985.144 1121.19 999.009 1123.96 1010.1 1143.36 1032.29 1171.07 1054.47 1209.86 1073.88 1209.86 1048.93 1212.64 1035.06 1201.55 1029.51 1193.24 1012.88 1198.78 996.236 1209.86 985.144 1229.26 982.371 1251.43 993.463 1256.97 1001.78 1254.2 1026.74 1243.12 1037.83 1237.58 1037.83 1243.12 1073.88 1256.97 1101.62 1295.77 1159.85 1323.48 1198.68 1348.42 1226.41 1378.91 1245.82 1428.79 1268 1428.79 1165.4 1417.7 1132.12 1398.3 1104.39 1376.14 1079.43 1367.82 1073.88 1367.82 1068.34 1356.74 1062.79 1329.03 1026.74 1306.86 982.371 1293 940.773 1279.14 871.445 1265.29 843.713 1245.89 821.528 1201.55 799.343 1176.61 782.704 1157.21 760.519 1143.36 741.107 1143.36 735.56 1126.73 738.333 1087.93 738.333 1065.76 727.241 1043.59 702.283 1038.05 688.417 1038.05 649.593 1051.91 621.861 1074.08 605.223 1090.7 599.676 1123.96 599.676 1151.67 613.541 1168.3 635.727 1176.61 657.912 1176.61 682.871 1168.3 707.829 1168.3 718.921 1187.69 741.107 1218.18 760.519 1262.52 779.931 1293 807.662 1293 815.982 1298.54 815.982 1301.31 793.797 1334.57 699.51 1340.11 674.551 1340.11 641.273 1331.8 591.356 1317.94 555.306 1309.63 541.44 1309.63 535.893 1290.23 541.44 1254.2 541.44 1226.49 533.12 1198.78 513.708 1179.38 485.977 1171.07 461.019 1171.07 419.421 1182.15 388.917 1198.78 366.732 1229.26 347.319 1256.97 339Z" fill="#395364" fill-rule="evenodd" fill-opacity="1"/><path d="M1415 761 1409.64 771.435 1401 803 1401 782.238 1409.58 765.524 1415 761Z" fill="#395364" fill-rule="evenodd" fill-opacity="1"/><path d="M2214.07 1235 2277.7 1235 2321.97 1246.08 2346.87 1259.94 2360.7 1276.56 2369 1298.73 2369 1464.97 2357.93 1487.13 2346.87 1500.99 2330.27 1512.07 2305.37 1517.61 2158.73 1520.38 2131.07 1531.46 2103.4 1556.4 2092.33 1584.11 2089.57 1667.23 2086.8 1670 2037 1670 2006.57 1661.69 1987.2 1647.83 1967.83 1617.36 1959.53 1595.19 1954 1561.94 1954 1506.53 1962.3 1462.2 1978.9 1428.95 2001.03 1406.78 2028.7 1392.93 2042.53 1390.16 2247.27 1392.93 2247.27 1373.53 2114.47 1373.53 2111.7 1370.76 2111.7 1298.73 2122.77 1276.56 2144.9 1257.17 2167.03 1246.08 2194.7 1237.77 2214.07 1235ZM2159.75 1283.03 2143.15 1296.89 2143.15 1321.82 2145.92 1327.37 2159.75 1335.68 2179.12 1332.91 2190.19 1319.05 2190.19 1299.66 2179.12 1285.81 2159.75 1283.03Z" fill="#395364" fill-rule="evenodd" fill-opacity="1"/><path d="M2386.01 1379 2424.83 1379 2452.55 1387.33 2474.73 1401.21 2491.37 1423.41 2502.45 1451.17 2508 1492.8 2508 1539.99 2502.45 1578.85 2494.14 1606.6 2474.73 1634.36 2449.78 1651.01 2430.37 1656.56 2239.08 1656.56 2239.08 1673.22 2369.38 1675.99 2369.38 1748.16 2355.52 1775.92 2336.11 1792.57 2302.84 1806.45 2269.57 1812 2205.81 1812 2164.22 1803.67 2136.5 1789.79 2122.64 1778.69 2108.77 1756.49 2106 1748.16 2106 1581.62 2119.86 1556.64 2142.04 1539.99 2169.77 1531.66 2316.7 1528.88 2344.43 1517.78 2366.61 1498.35 2380.47 1470.6 2383.24 1456.72 2386.01 1379ZM2293.39 1699.79 2287.84 1702.57 2279.53 1716.45 2279.53 1733.1 2282.3 1738.65 2296.16 1749.76 2315.57 1749.76 2326.66 1735.88 2323.89 1710.9 2310.02 1699.79 2293.39 1699.79Z" fill="#395364" fill-rule="evenodd" fill-opacity="1"/><path d="M2611.47 1045.14 2647.47 1045.14 2675.16 1059.01 2691.78 1081.19 2697.32 1092.28 2700.08 1120.02 2694.55 1144.97 2677.93 1167.16 2658.55 1181.02 2641.93 1186.57 2622.55 1186.57 2617.01 1214.3 2592.08 1266.99 2572.7 1297.49 2614.24 1291.94 2655.78 1289.17 2691.78 1278.08 2711.16 1272.53 2711.16 1244.8 2725.01 1222.62 2744.39 1211.53 2769.32 1208.75 2788.7 1219.85 2799.78 1233.71 2805.32 1258.67 2797.01 1286.4 2774.85 1303.04 2766.55 1305.81 2744.39 1305.81 2727.78 1297.49 2711.16 1303.04 2672.39 1322.45 2661.32 1325.22 2597.62 1327.99 2567.16 1339.09 2547.78 1361.27 2536.7 1383.45 2522.85 1433.37 2517.32 1436.14 2497.93 1397.32 2481.31 1377.91 2484.08 1339.09 2484.08 1311.36 2461.93 1239.26 2445.32 1208.75 2445.32 1178.25 2453.62 1158.84 2461.93 1153.29 2478.55 1153.29 2489.62 1167.16 2495.16 1181.02 2495.16 1230.94 2520.08 1294.72 2522.85 1297.49 2539.47 1272.53 2572.7 1228.16 2592.08 1189.34 2594.85 1175.48 2581.01 1169.93 2564.39 1147.75 2558.85 1133.88 2558.85 1100.6 2567.16 1078.42 2586.55 1056.23 2600.39 1047.92Z" fill="#395364" fill-rule="evenodd" fill-opacity="1"/><path d="M1716.26 968.131 2145.86 968.131 2154.18 976.438 2154.18 993.054 2145.86 1004.13 1713.49 1004.13 1705.18 995.823 1705.18 979.208Z" fill="#395364" fill-rule="evenodd" fill-opacity="1"/><path d="M1694.51 795.103 1772.26 795.103 1986.07 797.853 1994.4 806.103 1997.17 817.103 1991.62 828.103 1702.84 828.103 1688.95 822.603 1686.17 803.353Z" fill="#395364" fill-rule="evenodd" fill-opacity="1"/><path d="M1888.32 1315.18 1899.43 1320.72 1902.2 1340.11 1896.65 1348.42 1777.26 1351.18 1649.53 1351.18 1641.2 1342.88 1641.2 1326.26 1649.53 1317.95Z" fill="#395364" fill-rule="evenodd" fill-opacity="1"/><path d="M1822.49 1142.16 1889.09 1142.16 1900.19 1153.23 1897.42 1169.85 1891.87 1175.39 1692.07 1178.16 1678.19 1169.85 1678.19 1153.23 1683.74 1144.93Z" fill="#395364" fill-rule="evenodd" fill-opacity="1"/><path d="M1719.07 880.116 1908.06 880.116 1919.18 888.366 1919.18 907.616 1913.62 913.116 1713.52 913.116 1705.18 899.366 1713.52 882.866Z" fill="#395364" fill-rule="evenodd" fill-opacity="1"/><path d="M2060.55 1056.15 2268.46 1056.15 2271.23 1061.78 2271.23 1081.51 2265.69 1087.15 2057.78 1087.15 2052.23 1081.51 2052.23 1064.6Z" fill="#395364" fill-rule="evenodd" fill-opacity="1"/><path d="M2034.63 797.104 2225.91 799.854 2234.23 808.104 2231.46 827.354 2225.91 830.104 2115.02 830.104 2020.77 827.354 2015.23 819.104 2015.23 805.354 2020.77 799.854Z" fill="#395364" fill-rule="evenodd" fill-opacity="1"/><path d="M1868.5 1056.14 2017.9 1056.14 2026.2 1064.39 2023.43 1083.64 2015.13 1089.14 1868.5 1089.14 1860.2 1078.14 1862.97 1061.64Z" fill="#395364" fill-rule="evenodd" fill-opacity="1"/><path d="M1798.76 1230.17 1812.64 1235.71 1818.19 1249.56 1812.64 1260.63 1807.09 1263.4 1693.28 1266.17 1668.29 1266.17 1659.97 1260.63 1657.19 1246.79 1665.52 1232.94Z" fill="#395364" fill-rule="evenodd" fill-opacity="1"/><path d="M2130.52 883.117 2260.2 883.117 2271.24 891.367 2271.24 907.867 2262.96 916.117 2149.83 916.117 2125 913.367 2122.24 907.867 2122.24 891.367Z" fill="#395364" fill-rule="evenodd" fill-opacity="1"/><path d="M1642 1400.2 1747.1 1400.2 1758.17 1411.27 1755.4 1430.66 1744.34 1436.2 1636.46 1436.2 1628.17 1427.89 1630.93 1408.51Z" fill="#395364" fill-rule="evenodd" fill-opacity="1"/><path d="M1705.34 1056.14 1814.22 1056.14 1825.39 1061.64 1828.18 1075.39 1819.8 1089.14 1702.55 1089.14 1694.18 1080.89 1696.97 1061.64Z" fill="#395364" fill-rule="evenodd" fill-opacity="1"/><path d="M1948.99 1142.16 2048.19 1142.16 2056.46 1147.7 2059.21 1164.31 2045.44 1178.16 1948.99 1178.16 1937.97 1172.62 1935.21 1156Z" fill="#395364" fill-rule="evenodd" fill-opacity="1"/><path d="M1970.26 880.116 2075.17 880.116 2086.22 888.366 2086.22 907.616 2080.69 913.116 1964.74 913.116 1959.22 907.616 1959.22 888.366Z" fill="#395364" fill-rule="evenodd" fill-opacity="1"/><path d="M1852.52 1230.17 1957.88 1230.17 1966.2 1238.42 1966.2 1254.92 1957.88 1263.17 1852.52 1263.17 1844.2 1254.92 1844.2 1238.42Z" fill="#395364" fill-rule="evenodd" fill-opacity="1"/><path d="M1799.29 1400.2 1890.87 1400.2 1899.19 1405.87 1899.19 1425.7 1890.87 1434.2 1793.74 1434.2 1788.19 1425.7 1790.97 1405.87Z" fill="#395364" fill-rule="evenodd" fill-opacity="1"/><path d="M2186.56 968.131 2264.16 968.131 2275.25 976.438 2275.25 995.823 2266.94 1004.13 2183.79 1004.13 2178.25 995.823 2178.25 976.438Z" fill="#395364" fill-rule="evenodd" fill-opacity="1"/><path d="M2090.48 1142.16 2172.98 1142.16 2181.23 1153.16 2178.48 1169.66 2170.23 1175.16 2087.73 1175.16 2082.23 1166.91 2082.23 1150.41Z" fill="#395364" fill-rule="evenodd" fill-opacity="1"/><path d="M1751.27 1491.21 1828.87 1491.21 1837.18 1499.46 1837.18 1515.96 1831.64 1521.46 1767.9 1524.21 1745.73 1521.46 1740.18 1504.96 1745.73 1493.96Z" fill="#395364" fill-rule="evenodd" fill-opacity="1"/><path d="M1633.71 1494.21 1708.62 1494.21 1714.16 1499.66 1714.16 1516.03 1705.84 1524.21 1633.71 1524.21 1628.16 1516.03 1630.94 1496.94Z" fill="#395364" fill-rule="evenodd" fill-opacity="1"/><path d="M2001.56 1230.17 2062.67 1230.17 2068.22 1235.67 2068.22 1254.92 2062.67 1263.17 2001.56 1263.17 1993.22 1249.42 1996 1235.67Z" fill="#395364" fill-rule="evenodd" fill-opacity="1"/><path d="M1938.06 1315.18 1985.14 1315.18 1993.44 1320.68 1996.21 1334.43 1990.67 1345.43 1985.14 1348.18 1932.52 1348.18 1924.21 1339.93 1926.98 1320.68Z" fill="#395364" fill-rule="evenodd" fill-opacity="1"/></g></g></svg>