<?xml version="1.0" encoding="UTF-8"?>
<svg id="Layer_1" xmlns="http://www.w3.org/2000/svg" width="1200" height="1200" version="1.1" viewBox="0 0 1200 1200">
  <!-- Generator: Adobe Illustrator 29.7.0, SVG Export Plug-In . SVG Version: 2.1.1 Build 14)  -->
  <polyline points="985.3 306.2 1037.5 306.2 1037.5 892.8 163.1 892.8 163.1 306.2 215.2 306.2" fill="#b61c1c"/>
  <path d="M215.2,847.9c128.4-31.2,256.7-31.2,385.1,0V283.4c-128.4-31.2-256.7-31.2-385.1,0,0,0,0,564.6,0,564.6Z" fill="#ea9e65"/>
  <path d="M870.9,263.9c38.1,3.8,76.3,10.3,114.4,19.5v564.6c-128.4-31.2-256.7-31.2-385.1,0V283.4" fill="#c9824d"/>
  <path d="M600.3,847.9c58.8-102.5,150-159.8,270.6-175.9V107.4c-120.6,16.1-211.8,73.4-270.6,175.9v564.6Z" fill="#ea9e65"/>
  <path d="M215.2,857.9c-2.2,0-4.4-.7-6.1-2.1-2.4-1.9-3.8-4.8-3.8-7.8V283.4c0-4.6,3.1-8.6,7.6-9.7,129.3-31.4,260.4-31.4,389.7,0,4.5,1.1,7.6,5.1,7.6,9.7v564.5c0,3.1-1.4,5.9-3.8,7.8-2.4,1.9-5.5,2.6-8.5,1.8-126.2-30.6-254.2-30.6-380.4,0-.8.2-1.6.3-2.3.3ZM407.8,814.7c61,0,122,6.9,182.6,20.7V291.2c-121.2-28.2-244-28.2-365.2,0v544.2c60.6-13.8,121.6-20.7,182.6-20.7Z"/>
  <path d="M985.3,857.9c-.8,0-1.6,0-2.3-.3-126.2-30.6-254.2-30.6-380.4,0-3,.7-6.1,0-8.5-1.8-2.4-1.9-3.8-4.8-3.8-7.8V283.4c0-5.5,4.5-9.9,9.9-9.9s9.9,4.5,9.9,9.9v552c121.2-27.5,243.9-27.5,365.2,0V291.2c-35.1-8.2-70.5-14.1-105.5-17.5-5.5-.5-9.4-5.4-8.9-10.9.5-5.5,5.3-9.5,10.9-8.9,38.4,3.8,77.4,10.4,115.8,19.8,4.5,1.1,7.6,5.1,7.6,9.7v564.5c0,3.1-1.4,5.9-3.8,7.8-1.8,1.4-3.9,2.1-6.2,2.1Z"/>
  <path d="M1037.5,902.8H163.1c-5.5,0-9.9-4.4-9.9-9.9V306.2c0-5.5,4.5-9.9,9.9-9.9h52.2c5.5,0,9.9,4.5,9.9,9.9s-4.5,9.9-9.9,9.9h-42.2v566.8h854.5V316.1h-42.2c-5.5,0-9.9-4.5-9.9-9.9s4.4-9.9,9.9-9.9h52.2c5.5,0,9.9,4.5,9.9,9.9v586.7c0,5.5-4.4,9.9-9.9,9.9Z"/>
  <path d="M600.3,857.9c-.8,0-1.7-.1-2.6-.3-4.4-1.2-7.4-5.1-7.4-9.6V283.4c0-1.7.5-3.4,1.3-4.9,59.2-103.3,152.7-164.1,277.9-180.8,2.9-.4,5.7.5,7.9,2.4,2.2,1.9,3.4,4.6,3.4,7.5v564.6c0,5-3.7,9.2-8.6,9.8-118.8,15.9-207.3,73.4-263.3,171-1.8,3.1-5.1,5-8.6,5ZM610.2,286v527.6c57.9-83.3,142.1-133.8,250.7-150.2V118.9c-112.2,17.8-196.5,74-250.7,167.1Z"/>
  <path d="M669.2,331.7c-2.7,0-5.4-1.1-7.3-3.2-3.7-4.1-3.4-10.3.6-14,38.9-35.5,86-61.5,139.9-77.3,5.3-1.6,10.8,1.5,12.3,6.7,1.5,5.3-1.5,10.8-6.8,12.3-51,14.9-95.4,39.4-132,72.9-1.9,1.7-4.3,2.6-6.7,2.6Z"/>
  <path d="M669.2,436.2c-2.7,0-5.4-1.1-7.3-3.2-3.7-4.1-3.4-10.3.6-14,38.9-35.5,86-61.5,139.9-77.3,5.3-1.6,10.8,1.5,12.3,6.7,1.5,5.3-1.5,10.8-6.8,12.3-51,14.9-95.4,39.4-132,72.9-1.9,1.8-4.3,2.6-6.7,2.6Z"/>
  <path d="M669.2,540.7c-2.7,0-5.4-1.1-7.3-3.2-3.7-4.1-3.4-10.3.6-14,38.9-35.5,86-61.5,139.9-77.3,5.3-1.6,10.8,1.5,12.3,6.7,1.5,5.3-1.5,10.8-6.8,12.3-51,14.9-95.4,39.4-132,72.9-1.9,1.7-4.3,2.6-6.7,2.6Z"/>
  <path d="M600.3,902.8c-5.5,0-9.9-4.4-9.9-9.9v-54.4c0-5.5,4.5-9.9,9.9-9.9s9.9,4.4,9.9,9.9v54.4c0,5.5-4.5,9.9-9.9,9.9Z"/>
  <path d="M669.2,645.3c-2.7,0-5.4-1.1-7.3-3.2-3.7-4.1-3.4-10.3.6-14,38.9-35.5,85.9-61.5,139.9-77.3,5.3-1.5,10.8,1.5,12.3,6.8,1.5,5.3-1.5,10.8-6.8,12.3-51,14.9-95.4,39.4-132,72.9-1.9,1.7-4.3,2.6-6.7,2.6Z"/>
  <path d="M281.6,405.4c-4.8,0-9-3.5-9.8-8.4-.9-5.4,2.8-10.5,8.3-11.4,84.3-13.4,169.8-13.5,254-.2,5.4.9,9.1,5.9,8.3,11.4-.9,5.4-6,9.1-11.4,8.3-82.2-12.9-165.6-12.9-247.8.2-.5,0-1.1.1-1.6.1Z"/>
  <path d="M281.6,510c-4.8,0-9-3.5-9.8-8.4-.9-5.4,2.8-10.5,8.3-11.4,84.3-13.4,169.7-13.5,254-.2,5.4.9,9.1,5.9,8.3,11.4-.9,5.4-6,9.1-11.4,8.3-82.2-12.9-165.6-12.9-247.8.2-.5,0-1.1.1-1.6.1Z"/>
  <path d="M281.6,614.5c-4.8,0-9-3.5-9.8-8.4-.9-5.4,2.8-10.5,8.3-11.4,84.3-13.4,169.8-13.5,254-.2,5.4.9,9.1,5.9,8.3,11.4-.8,5.4-6,9.1-11.4,8.3-82.2-12.9-165.6-12.9-247.8.2-.5,0-1.1.1-1.6.1Z"/>
  <path d="M281.6,719.1c-4.8,0-9-3.5-9.8-8.4-.9-5.4,2.8-10.5,8.3-11.4,84.4-13.4,169.9-13.5,254.3-.2,5.4.9,9.1,6,8.3,11.4-.8,5.4-5.9,9.1-11.4,8.3-82.3-13-165.8-12.9-248.1.2-.5,0-1.1.1-1.6.1Z"/>
</svg>